name C:\Users\u0101727\Documents\MyRepositories\upper-imu-dc\Results\main_tracking\Case_10\kinematics.mot
datacolumns 10
datarows 52
range 0.50000000 1.01000000
endheader 
time	clav_prot	clav_elev	scapula_abduction	scapula_elevation	scapula_upward_rot	scapula_winging	plane_elv	shoulder_elv	axial_rot	
          0.50000000	        -24.23824522	         -3.88012800	        -14.54372974	         -4.16190168	         14.37023168	          4.93540012	        -24.93995497	         12.33946635	         39.57323009	
          0.51000000	        -24.11556272	         -3.92362916	        -14.47175324	         -4.18399070	         14.33203396	          4.96147831	        -24.73150707	         12.26603311	         40.04194742	
          0.52000000	        -23.93738639	         -3.95851878	        -14.15677778	         -4.19911804	         14.33053103	          4.97414819	        -24.50913148	         12.21388622	         40.50353877	
          0.53000000	        -23.68510910	         -3.99260499	        -13.70407642	         -4.21344115	         14.34587597	          4.98098055	        -24.25780007	         12.18048597	         40.93718244	
          0.54000000	        -23.58198371	         -4.00422301	        -13.51730996	         -4.21850776	         14.35582727	          4.98151169	        -23.93789537	         12.16204430	         41.30452077	
          0.55000000	        -23.59310788	         -4.00044085	        -13.53710675	         -4.21646781	         14.35646087	          4.98021916	        -23.54822797	         12.15394900	         41.56209144	
          0.56000000	        -23.86225816	         -3.97184739	        -14.02357700	         -4.20475731	         14.33105889	          4.97844619	        -23.05879957	         12.16485827	         41.66529057	
          0.57000000	        -23.90346434	         -3.96528333	        -14.12395487	         -4.19026286	         14.28438621	          4.98806849	        -22.47369141	         12.19576718	         41.57963704	
          0.58000000	        -23.94718455	         -3.96327652	        -14.23056504	         -4.17803407	         14.23242132	          5.00044821	        -21.81183688	         12.23763846	         41.28033233	
          0.59000000	        -23.96601110	         -3.97024736	        -14.29099922	         -4.17150522	         14.18200562	          5.01538444	        -21.07972463	         12.29097098	         40.75161841	
          0.60000000	        -23.96206624	         -3.98834628	        -14.30850629	         -4.17239118	         14.13289682	          5.03367055	        -20.27457231	         12.36106685	         39.98417797	
          0.61000000	        -23.94483666	         -4.01775488	        -14.30061412	         -4.18088874	         14.08301283	          5.05586205	        -19.39290692	         12.45363007	         38.97126611	
          0.62000000	        -23.92284179	         -4.05792689	        -14.28307290	         -4.19671023	         14.03078372	          5.08215380	        -18.43356840	         12.57345205	         37.70652267	
          0.63000000	        -23.90155198	         -4.10803182	        -14.26576468	         -4.21946441	         13.97581777	          5.11238146	        -17.39782974	         12.72381545	         36.18573124	
          0.64000000	        -23.88371759	         -4.16692944	        -14.25333270	         -4.24863352	         13.91880605	          5.14603006	        -16.28876724	         12.90603716	         34.41243402	
          0.65000000	        -23.87020699	         -4.23302026	        -14.24682860	         -4.28343831	         13.86123968	          5.18224181	        -15.11103560	         13.11909773	         32.40522076	
          0.66000000	        -23.86056897	         -4.30420916	        -14.24483829	         -4.32277931	         13.80515523	          5.21985524	        -13.87099260	         13.35956236	         30.20286048	
          0.67000000	        -23.85329896	         -4.37806705	        -14.24402744	         -4.36531898	         13.75291265	          5.25750429	        -12.57669135	         13.62198003	         27.86413093	
          0.68000000	        -23.84629251	         -4.45212495	        -14.24001158	         -4.40966100	         13.70691188	          5.29378112	        -11.23736111	         13.89977637	         25.46161496	
          0.69000000	        -23.83756277	         -4.52420472	        -14.22870117	         -4.45456126	         13.66925940	          5.32742977	         -9.86251873	         14.18638577	         23.07158974	
          0.70000000	        -23.82582621	         -4.59270408	        -14.20738871	         -4.49911514	         13.64150822	          5.35751148	         -8.46113677	         14.47622445	         20.76365219	
          0.71000000	        -23.81062662	         -4.65676916	        -14.17496959	         -4.54287516	         13.62457111	          5.38349192	         -7.04111580	         14.76521597	         18.59320767	
          0.72000000	        -23.79201562	         -4.71631493	        -14.13134164	         -4.58586819	         13.61880139	          5.40523539	         -5.60897974	         15.05082681	         16.59812256	
          0.73000000	        -23.77006736	         -4.77188988	        -14.07651450	         -4.62850284	         13.62415021	          5.42292423	         -4.16957776	         15.33176958	         14.79906904	
          0.74000000	        -23.74454713	         -4.82441345	        -14.01003219	         -4.67138134	         13.64029548	          5.43693829	         -2.72566345	         15.60760012	         13.20216595	
          0.75000000	        -23.71498193	         -4.87484008	        -13.93116067	         -4.71505491	         13.66667406	          5.44773102	         -1.27736223	         15.87840146	         11.80240331	
          0.76000000	        -23.68116018	         -4.92382552	        -13.83985918	         -4.75978680	         13.70243385	          5.45572704	          0.17829557	         16.14463900	         10.58680195	
          0.77000000	        -23.64375262	         -4.97147742	        -13.73791882	         -4.80539605	         13.74641916	          5.46124287	          1.64744100	         16.40712992	          9.53696792	
          0.78000000	        -23.60464025	         -5.01725031	        -13.62947150	         -4.85123339	         13.79730943	          5.46442095	          3.13873083	         16.66700432	          8.63115513	
          0.79000000	        -23.56672264	         -5.06001760	        -13.52046210	         -4.89630401	         13.85392585	          5.46518126	          4.66193728	         16.92559794	          7.84600041	
          0.80000000	        -23.53321506	         -5.09833665	        -13.41716546	         -4.93951830	         13.91558437	          5.46322165	          6.22595643	         17.18433890	          7.15797697	
          0.81000000	        -23.50667614	         -5.13088039	        -13.32428658	         -4.98001445	         13.98229769	          5.45810573	          7.83666613	         17.44476664	          6.54451581	
          0.82000000	        -23.48823054	         -5.15692131	        -13.24355908	         -5.01745661	         14.05467977	          5.44944177	          9.49521255	         17.70876268	          5.98475275	
          0.83000000	        -23.47739263	         -5.17668838	        -13.17356834	         -5.05220353	         14.13358258	          5.43709319	         11.19723783	         17.97889584	          5.46001535	
          0.84000000	        -23.47249212	         -5.19145039	        -13.11072437	         -5.08528543	         14.21965681	          5.42132467	         12.93328367	         18.25865406	          4.95432557	
          0.85000000	        -23.47137339	         -5.20329032	        -13.05070640	         -5.11819384	         14.31304073	          5.40281382	         14.69027333	         18.55238583	          4.45507992	
          0.86000000	        -23.47203370	         -5.21464318	        -12.98972321	         -5.15254669	         14.41328118	          5.38251906	         16.45369553	         18.86494127	          3.95362838	
          0.87000000	        -23.47303730	         -5.22773048	        -12.92527761	         -5.18971924	         14.51948229	          5.36144776	         18.20992855	         19.20114326	          3.44505886	
          0.88000000	        -23.47371316	         -5.24404391	        -12.85645463	         -5.23053879	         14.63060718	          5.34039762	         19.94809222	         19.56526942	          2.92655595	
          0.89000000	        -23.47418109	         -5.26402475	        -12.78383336	         -5.27513188	         14.74583198	          5.31975040	         21.66092523	         19.96068695	          2.39432663	
          0.90000000	        -23.47514697	         -5.28704083	        -12.70895767	         -5.32297073	         14.86484641	          5.29938087	         23.34450365	         20.38970697	          1.83984692	
          0.91000000	        -23.47748758	         -5.31164002	        -12.63347017	         -5.37307710	         14.98799594	          5.27870132	         24.99711449	         20.85365961	          1.24655653	
          0.92000000	        -23.48185259	         -5.33593724	        -12.55836774	         -5.42427612	         15.11621559	          5.25680778	         26.61790018	         21.35312320	          0.58802363	
          0.93000000	        -23.48854488	         -5.35797385	        -12.48383253	         -5.47540880	         15.25081692	          5.23266003	         28.20578971	         21.88816237	         -0.17169584	
          0.94000000	        -23.49763574	         -5.37598876	        -12.40950172	         -5.52548747	         15.39325788	          5.20524093	         29.75884993	         22.45841767	         -1.07509012	
          0.95000000	        -23.50907457	         -5.38861950	        -12.33471440	         -5.57381129	         15.54496606	          5.17367957	         31.27397030	         23.06299382	         -2.16559342	
          0.96000000	        -23.52270733	         -5.39500774	        -12.25859236	         -5.62001732	         15.70721766	          5.13732495	         32.74690352	         23.70019003	         -3.47985612	
          0.97000000	        -23.53834453	         -5.39470011	        -12.18020800	         -5.66399792	         15.88109468	          5.09572423	         34.17281831	         24.36712746	         -5.03892501	
          0.98000000	        -23.55572014	         -5.38728071	        -12.09854353	         -5.70564147	         16.06758129	          5.04846189	         35.54745281	         25.05934038	         -6.83990716	
          0.99000000	        -23.57483087	         -5.37166806	        -12.01310434	         -5.74437257	         16.26778972	          4.99484295	         36.86856331	         25.77050210	         -8.85017639	
          1.00000000	        -23.59592027	         -5.34573014	        -11.92377120	         -5.77894236	         16.48330337	          4.93366037	         38.13712849	         26.49243490	        -11.00620414	
          1.01000000	        -23.61943986	         -5.30869903	        -11.83046954	         -5.80914047	         16.71566421	          4.86424296	         39.36154063	         27.21646609	        -13.21937866	
